<?xml version="1.0" standalone="no"?>
<!DOCTYPE svg PUBLIC "-//W3C//DTD SVG 20010904//EN"
 "http://www.w3.org/TR/2001/REC-SVG-20010904/DTD/svg10.dtd">
<svg version="1.0" xmlns="http://www.w3.org/2000/svg"
 width="512.000000pt" height="512.000000pt" viewBox="0 0 512.000000 512.000000"
 preserveAspectRatio="xMidYMid meet">
<metadata>
Created by potrace 1.11, written by Peter Selinger 2001-2013
</metadata>
<g transform="translate(0.000000,512.000000) scale(0.100000,-0.100000)"
fill="#000000" stroke="none">
<path d="M843 5049 c-98 -48 -287 -271 -410 -484 -189 -326 -301 -637 -357
-990 -17 -104 -21 -170 -21 -335 0 -197 5 -262 35 -440 5 -30 12 -73 16 -95 3
-22 8 -43 10 -46 2 -3 6 -21 9 -40 3 -19 20 -86 36 -149 220 -824 705 -1472
1013 -1351 126 50 258 262 360 576 52 163 79 281 121 525 13 74 14 325 2 359
-28 81 -116 99 -307 66 -118 -20 -383 -134 -476 -204 -55 -42 -63 -65 -36
-109 47 -78 121 -104 313 -106 74 -2 141 -6 148 -10 9 -6 11 -25 7 -70 -4 -33
-8 -68 -11 -76 -2 -8 -6 -37 -10 -65 -12 -93 -56 -289 -86 -380 -38 -114 -72
-165 -109 -165 -87 0 -350 429 -505 820 -103 262 -169 506 -192 715 -13 114
-6 417 11 511 2 10 7 44 11 74 4 30 9 62 10 70 3 13 30 136 40 180 2 8 17 60
33 115 114 380 327 736 485 810 l49 23 71 -24 c115 -40 189 -37 200 8 16 61
-68 174 -185 249 -94 60 -200 75 -275 38z"/>
<path d="M1855 4775 c-161 -36 -343 -125 -610 -300 -170 -111 -223 -167 -269
-285 -35 -89 -35 -90 -11 -650 2 -41 6 -133 9 -205 19 -459 18 -452 77 -514
80 -83 202 -63 244 41 12 30 15 71 12 195 -2 87 -6 165 -8 173 -7 26 57 15
118 -22 76 -44 208 -176 267 -265 116 -178 200 -426 223 -665 14 -135 7 -481
-11 -573 -2 -11 -9 -56 -16 -100 -32 -217 -124 -501 -223 -685 -45 -84 -150
-241 -252 -380 -125 -169 -164 -233 -192 -310 -28 -79 -29 -130 -5 -160 15
-19 25 -22 53 -16 36 7 69 37 155 141 27 33 51 62 54 65 34 31 214 292 311
450 82 135 218 396 259 500 100 249 152 452 168 645 14 183 8 521 -13 640 -14
77 -18 96 -41 180 -67 239 -216 456 -431 625 -118 93 -129 120 -76 195 263
381 388 616 453 860 25 93 34 241 19 299 -30 112 -120 153 -264 121z m-61
-344 c26 -29 24 -137 -4 -226 -45 -143 -175 -357 -306 -503 -83 -92 -172 -148
-175 -109 0 6 -3 21 -5 32 -3 11 -8 121 -11 245 l-5 225 73 72 c141 136 284
246 354 271 44 16 60 14 79 -7z"/>
<path d="M2637 4760 c-91 -23 -123 -75 -111 -178 13 -110 9 -261 -10 -332 -26
-96 -77 -195 -152 -296 -86 -113 -114 -144 -305 -336 -86 -87 -159 -166 -162
-177 -6 -24 32 -119 64 -159 46 -58 129 -78 188 -47 16 8 52 41 80 74 69 79
124 97 190 61 12 -6 110 -117 218 -248 108 -130 210 -250 225 -267 31 -34 31
-45 -6 -240 -2 -11 -18 -101 -35 -200 -18 -99 -36 -198 -40 -220 -4 -22 -7
-80 -7 -130 1 -90 1 -90 28 -93 42 -5 128 41 194 105 75 71 88 96 104 198 15
96 15 97 34 210 38 230 51 389 50 635 -1 255 -12 363 -69 685 -28 154 -124
466 -212 690 -70 178 -97 231 -128 251 -31 20 -89 26 -138 14z m148 -736 c17
-11 31 -36 44 -83 19 -64 54 -220 66 -291 3 -19 7 -46 10 -60 5 -23 14 -96 20
-145 3 -27 -20 -59 -51 -74 -37 -16 -83 1 -114 43 -14 18 -71 91 -128 160 -86
107 -101 131 -97 154 7 40 131 274 156 295 26 21 62 22 94 1z"/>
<path d="M4232 4615 c-26 -22 -34 -40 -52 -123 -11 -53 -26 -117 -31 -142 -6
-25 -13 -56 -15 -70 -8 -45 -103 -423 -129 -515 -29 -102 -65 -195 -76 -195
-3 0 -11 6 -17 13 -13 16 -135 256 -191 377 -108 233 -224 462 -237 467 -57
22 -143 -63 -157 -156 -7 -43 65 -246 174 -486 28 -63 159 -358 205 -463 45
-103 53 -129 49 -167 -19 -193 -182 -550 -398 -875 -145 -218 -219 -307 -484
-580 -283 -292 -379 -411 -371 -462 4 -25 43 -56 78 -61 39 -6 108 18 169 60
169 115 425 362 573 553 413 532 713 1149 928 1912 74 260 160 642 162 713 4
173 -90 276 -180 200z"/>
<path d="M4543 3559 c-23 -8 -27 -16 -25 -55 2 -43 33 -92 146 -229 64 -77
116 -143 116 -147 0 -4 -42 -4 -92 -2 -69 4 -97 2 -110 -8 -33 -26 -25 -90 26
-194 39 -80 40 -78 -64 -87 -251 -21 -235 -82 52 -196 102 -40 221 -71 276
-71 105 0 108 40 18 215 -74 143 -79 127 56 170 102 32 133 55 123 94 -20 84
-129 237 -250 352 -103 97 -233 173 -272 158z"/>
<path d="M4273 2609 c-43 -27 -126 -151 -182 -272 -70 -149 -71 -135 18 -219
194 -182 407 -348 449 -348 24 0 64 78 94 185 31 113 32 271 2 312 -44 59 -82
22 -129 -122 -16 -47 -31 -84 -35 -83 -4 2 -27 20 -50 41 -47 43 -46 34 -11
165 32 117 1 159 -62 85 -63 -73 -85 -93 -100 -87 -33 12 -31 24 36 184 39 92
50 139 39 156 -14 21 -39 22 -69 3z"/>
<path d="M3923 1920 c-86 -38 -189 -125 -277 -234 l-38 -46 101 -206 c168
-343 267 -504 310 -504 30 0 54 36 59 90 3 37 -3 72 -23 137 -16 49 -32 93
-35 98 -4 6 -10 22 -14 36 -7 32 7 46 54 54 178 30 204 39 248 89 17 20 35 51
40 70 10 35 13 141 5 164 -11 27 -58 12 -108 -34 -69 -64 -114 -98 -121 -91
-4 3 1 25 10 49 29 78 41 142 36 195 -13 124 -130 187 -247 133z m78 -240 c11
-37 10 -44 -22 -107 -19 -38 -41 -69 -49 -70 -16 -3 -80 84 -80 109 0 25 89
108 116 108 18 0 26 -8 35 -40z"/>
<path d="M3363 1429 c-40 -20 -207 -171 -199 -180 2 -2 7 -56 10 -119 4 -63 9
-137 11 -165 2 -27 7 -86 10 -130 9 -134 14 -151 57 -200 59 -67 108 -89 193
-89 114 0 229 66 278 158 22 43 29 141 15 199 -10 43 -54 112 -89 141 l-31 26
18 38 c23 48 30 139 14 187 -16 47 -72 111 -121 136 -50 25 -113 24 -166 -2z
m127 -203 c4 -11 6 -28 4 -36 -1 -8 -3 -23 -3 -33 -1 -10 -12 -29 -25 -42 -19
-19 -31 -22 -57 -18 -19 3 -36 7 -38 9 -8 8 -2 68 10 96 22 54 92 69 109 24z
m82 -375 c-4 -73 -58 -140 -99 -124 -21 8 -40 53 -48 110 -6 51 -6 52 22 55
15 2 51 4 78 3 l50 0 -3 -44z"/>
</g>
</svg>
